<?xml version="1.0" standalone="no"?>
<!DOCTYPE svg PUBLIC "-//W3C//DTD SVG 20010904//EN"
 "http://www.w3.org/TR/2001/REC-SVG-20010904/DTD/svg10.dtd">
<svg version="1.0" xmlns="http://www.w3.org/2000/svg"
 width="894.000000pt" height="894.000000pt" viewBox="0 0 894.000000 894.000000"
 preserveAspectRatio="xMidYMid meet">
<metadata>
Created by potrace 1.11, written by Peter Selinger 2001-2013
</metadata>
<g transform="translate(0.000000,894.000000) scale(0.100000,-0.100000)"
fill="#000000" stroke="none">
<path d="M4220 8286 c-3 -2 -41 -7 -85 -10 -44 -3 -96 -8 -115 -11 -19 -2 -57
-7 -85 -10 -27 -4 -88 -13 -135 -22 -47 -8 -94 -16 -105 -18 -11 -1 -51 -10
-90 -20 -38 -9 -74 -18 -80 -19 -5 -1 -16 -5 -22 -9 -7 -5 -13 -6 -13 -3 0 2
-15 0 -32 -5 -31 -9 -49 -14 -88 -24 -8 -2 -16 -4 -17 -5 -2 -2 -6 -3 -10 -4
-17 -4 -119 -38 -138 -46 -11 -5 -31 -12 -45 -15 -14 -4 -38 -13 -55 -20 -27
-11 -61 -25 -75 -30 -13 -4 -49 -20 -100 -43 -30 -14 -57 -26 -60 -26 -13 -3
-76 -30 -80 -35 -3 -3 -39 -23 -80 -43 -101 -50 -192 -100 -208 -115 -7 -7
-19 -13 -27 -13 -7 0 -15 -4 -17 -8 -1 -5 -15 -15 -30 -23 -36 -19 -199 -130
-222 -151 -11 -10 -26 -18 -33 -18 -8 0 -12 -4 -8 -9 3 -5 -3 -12 -13 -15 -10
-4 -34 -21 -54 -39 -19 -17 -37 -32 -40 -32 -3 0 -16 -10 -29 -22 -31 -29 -66
-59 -123 -108 -55 -47 -246 -234 -246 -240 0 -3 -19 -25 -42 -49 -59 -61 -98
-107 -98 -116 0 -4 -7 -10 -15 -14 -8 -3 -15 -12 -15 -21 0 -8 -7 -15 -16 -15
-8 0 -13 -4 -10 -9 4 -5 2 -11 -2 -13 -11 -4 -148 -190 -149 -202 -1 -5 -5
-12 -10 -15 -5 -3 -26 -33 -47 -66 -21 -33 -47 -72 -57 -87 -11 -15 -19 -32
-19 -38 0 -5 -5 -10 -12 -10 -6 0 -9 -3 -6 -6 4 -3 -5 -22 -18 -42 -14 -19
-27 -46 -30 -59 -4 -13 -9 -23 -13 -23 -4 0 -25 -37 -46 -82 -22 -46 -44 -86
-48 -89 -5 -3 -9 -10 -8 -15 0 -5 -9 -29 -20 -54 -11 -25 -34 -79 -50 -120
-17 -41 -35 -86 -41 -100 -6 -14 -12 -29 -14 -35 -1 -5 -21 -64 -43 -130 -23
-66 -41 -120 -40 -120 1 0 -4 -20 -11 -45 -7 -25 -14 -52 -16 -60 -2 -8 -11
-44 -19 -80 -22 -87 -46 -210 -60 -305 -3 -22 -8 -53 -10 -70 -7 -40 -14 -104
-22 -195 -8 -89 -8 -540 0 -625 14 -143 18 -176 30 -246 7 -41 13 -85 12 -99
0 -14 3 -27 6 -30 4 -3 8 -21 10 -40 2 -19 7 -41 12 -47 5 -7 7 -13 4 -13 -3
0 1 -26 9 -57 8 -32 17 -69 20 -83 3 -14 10 -43 16 -65 7 -22 13 -47 14 -55 2
-8 12 -42 24 -75 11 -33 22 -67 24 -75 2 -8 6 -22 9 -30 20 -48 59 -158 62
-174 3 -10 8 -23 13 -30 5 -6 17 -31 26 -56 30 -77 110 -245 121 -252 5 -4 7
-8 3 -8 -3 0 22 -50 58 -111 35 -61 64 -115 64 -119 0 -5 3 -10 8 -12 4 -1 23
-29 42 -60 19 -32 38 -58 42 -58 4 0 8 -5 8 -11 0 -23 252 -357 277 -366 7 -3
13 -10 13 -15 0 -27 289 -311 445 -438 44 -36 85 -69 92 -75 31 -25 41 -33 88
-65 28 -19 52 -38 53 -42 2 -5 10 -8 18 -8 8 0 14 -4 14 -10 0 -5 6 -10 14
-10 8 0 16 -3 18 -8 2 -4 35 -27 73 -52 39 -24 72 -47 75 -50 3 -3 21 -14 40
-23 19 -10 62 -33 95 -52 77 -45 280 -145 294 -145 6 0 11 -5 11 -12 0 -6 3
-9 6 -6 3 4 47 -11 97 -32 126 -51 129 -53 152 -57 10 -2 23 -9 27 -16 4 -6 8
-9 8 -5 0 3 32 -5 72 -18 40 -14 79 -26 88 -27 8 -1 20 -6 26 -9 6 -4 21 -9
35 -12 13 -2 69 -15 124 -29 55 -14 118 -28 140 -33 22 -4 45 -8 50 -10 29 -7
181 -30 250 -39 22 -2 65 -7 95 -11 89 -10 608 -13 695 -4 44 5 105 11 135 14
30 3 66 8 80 10 31 6 95 16 135 22 17 2 40 6 53 9 12 3 32 7 45 10 104 22 216
49 232 56 11 5 32 11 47 13 14 2 35 9 45 14 10 6 20 9 23 9 7 -3 90 23 127 39
17 8 37 14 45 14 8 0 18 3 22 7 4 5 11 8 14 9 9 1 37 12 87 32 21 10 42 17 45
18 17 2 287 130 340 162 25 14 45 24 45 23 0 -9 268 159 273 172 2 4 8 7 13 7
8 0 187 125 199 139 3 3 23 19 45 36 22 16 42 31 45 35 3 3 34 30 70 59 82 69
352 339 405 406 21 28 42 52 45 55 4 3 28 32 54 65 25 33 51 65 56 72 31 39
130 185 130 193 0 4 3 10 8 12 11 5 62 83 62 96 0 7 4 12 9 12 5 0 11 8 15 18
3 9 20 40 36 67 80 131 225 444 280 605 12 36 25 72 28 80 6 18 4 11 27 85 10
33 18 66 18 73 0 6 5 12 10 12 6 0 8 3 4 6 -3 3 -2 16 3 29 8 20 60 251 76
335 4 19 7 47 8 63 0 15 3 27 6 27 3 0 5 10 6 23 0 12 4 45 7 72 17 130 22
230 22 480 0 149 -4 311 -8 360 -5 50 -10 108 -12 130 -2 22 -4 40 -5 40 -3 0
-4 11 -15 85 -3 25 -8 56 -11 70 -4 14 -8 39 -11 55 -2 17 -13 66 -24 110 -10
44 -22 91 -25 105 -8 39 -12 55 -14 58 -2 1 -4 7 -5 12 -1 6 -3 11 -5 13 -1 1
-3 9 -5 17 -2 8 -6 24 -9 35 -2 11 -14 49 -26 85 -12 36 -24 73 -26 83 -2 11
-8 25 -15 33 -6 8 -9 14 -6 14 2 0 -20 60 -50 133 -30 72 -60 146 -66 162 -7
17 -14 32 -17 35 -3 3 -30 54 -60 114 -30 60 -65 125 -77 143 -13 19 -23 40
-23 48 0 8 -5 15 -10 15 -6 0 -15 12 -20 26 -6 14 -21 40 -35 58 -14 18 -25
38 -25 44 0 7 -4 12 -10 12 -5 0 -10 6 -10 14 0 8 -3 16 -7 18 -5 2 -32 39
-62 83 -30 44 -57 82 -60 85 -3 3 -49 59 -103 125 -132 165 -338 373 -518 523
-68 56 -220 172 -226 172 -3 0 -19 10 -34 23 -41 33 -166 113 -260 165 -25 14
-58 33 -75 43 -90 54 -415 204 -415 192 0 -3 -7 1 -16 8 -9 7 -22 14 -30 15
-8 1 -47 15 -86 30 -40 16 -76 29 -80 30 -5 1 -9 2 -10 4 -2 1 -10 3 -18 5 -8
1 -44 13 -80 25 -36 12 -74 23 -85 25 -11 2 -40 9 -65 15 -25 7 -54 14 -65 17
-11 3 -27 6 -35 7 -8 2 -26 6 -40 10 -14 3 -36 8 -50 10 -14 3 -25 5 -25 6 0
2 -38 8 -90 14 -22 3 -42 6 -45 7 -3 1 -9 3 -15 4 -5 0 -30 4 -55 8 -25 4 -72
10 -105 13 -33 3 -73 8 -90 10 -42 7 -560 16 -565 10z"/>
</g>
</svg>
